<svg width="80" height="80" viewBox="0 0 80 80" fill="none" xmlns="http://www.w3.org/2000/svg">
<g clip-path="url(#clip0_35_126)">
<path d="M40.0003 0C17.9117 0 0 18.3381 0 40.9603C0 59.0577 11.4613 74.4114 27.3547 79.8275C29.3538 80.2067 30.0877 78.9389 30.0877 77.8571C30.0877 76.8803 30.0506 73.6537 30.0334 70.2311C18.9052 72.7089 16.5571 65.3983 16.5571 65.3983C14.7375 60.6639 12.1158 59.405 12.1158 59.405C8.48652 56.8628 12.3893 56.915 12.3893 56.915C16.406 57.2039 18.5211 61.136 18.5211 61.136C22.0887 67.3979 27.8786 65.5876 30.1612 64.541C30.5202 61.8936 31.5569 60.0867 32.7008 59.0638C23.8162 58.0281 14.4765 54.5159 14.4765 38.821C14.4765 34.3491 16.0391 30.6952 18.5979 27.8267C18.1826 26.795 16.8134 22.629 18.9854 16.987C18.9854 16.987 22.3444 15.8861 29.9883 21.1856C33.1791 20.278 36.601 19.8229 40.0003 19.8073C43.3997 19.8229 46.8243 20.278 50.0209 21.1856C57.6556 15.8861 61.01 16.987 61.01 16.987C63.1873 22.629 61.8174 26.795 61.4021 27.8267C63.9669 30.6952 65.5189 34.3491 65.5189 38.821C65.5189 54.5532 56.1613 58.0172 47.2542 59.0312C48.6889 60.3023 49.9673 62.795 49.9673 66.6165C49.9673 72.0971 49.9209 76.508 49.9209 77.8571C49.9209 78.9471 50.6409 80.2243 52.6685 79.8221C68.5533 74.3998 80 59.0516 80 40.9603C80 18.3381 62.091 0 40.0003 0ZM14.9814 58.3489C14.8933 58.5524 14.5807 58.6134 14.2959 58.4737C14.0057 58.3401 13.8428 58.0626 13.9368 57.8585C14.0229 57.6489 14.3363 57.5905 14.6257 57.731C14.9165 57.8646 15.0821 58.1447 14.9814 58.3489ZM16.949 60.1466C16.7582 60.3277 16.3853 60.2436 16.1323 59.9574C15.8706 59.6718 15.8216 59.29 16.015 59.1062C16.2118 58.9251 16.5734 59.0098 16.8357 59.2954C17.0974 59.5843 17.1484 59.9635 16.949 60.1466ZM18.2988 62.4468C18.0537 62.6212 17.653 62.4577 17.4053 62.0934C17.1602 61.7292 17.1602 61.2924 17.4106 61.1174C17.659 60.9424 18.0537 61.0998 18.3048 61.4613C18.5492 61.8316 18.5492 62.2684 18.2988 62.4468ZM20.5817 65.1108C20.3624 65.3584 19.8954 65.2919 19.5536 64.9541C19.2039 64.6238 19.1065 64.1551 19.3264 63.9075C19.5483 63.6592 20.018 63.7291 20.3624 64.0642C20.7095 64.3938 20.8155 64.8659 20.5817 65.1108ZM23.532 66.0101C23.4353 66.3309 22.9856 66.4768 22.5325 66.3404C22.0801 66.2 21.784 65.8242 21.8754 65.5C21.9695 65.1772 22.4212 65.0252 22.8776 65.1711C23.3293 65.3108 23.6261 65.6838 23.532 66.0101ZM26.8897 66.3916C26.9009 66.7294 26.5167 67.0095 26.0412 67.0156C25.5629 67.0264 25.1761 66.7531 25.1708 66.4207C25.1708 66.0796 25.5463 65.8021 26.0246 65.794C26.5002 65.7845 26.8897 66.0558 26.8897 66.3916ZM30.1882 66.2621C30.2451 66.5917 29.9146 66.9302 29.4423 67.0204C28.978 67.1072 28.5481 66.9038 28.4891 66.5768C28.4315 66.239 28.768 65.9006 29.2317 65.8131C29.7046 65.729 30.1279 65.927 30.1882 66.2621Z" fill="white"/>
</g>
<defs>
<clipPath id="clip0_35_126">
<rect width="80" height="80" fill="white"/>
</clipPath>
</defs>
</svg>
